<?xml version="1.0" encoding="utf-8"?>
<!-- Generator: Adobe Illustrator 27.5.0, SVG Export Plug-In . SVG Version: 6.00 Build 0)  -->
<svg version="1.1" xmlns="http://www.w3.org/2000/svg" xmlns:xlink="http://www.w3.org/1999/xlink" x="0px" y="0px"
	 viewBox="0 0 900 600" style="enable-background:new 0 0 900 600;" xml:space="preserve">
<g id="Layer_2">
	<rect style="fill:#FFFFFF;" width="900" height="600"/>
	<rect style="opacity:0;fill:#FFFFFF;" width="900" height="600"/>
</g>
<g id="Layer_1">
	<g>
		<g>
			<path style="fill:#F9EADA;" d="M181.438,517.704c-0.259-0.412-26.11-41.864-44.655-97.812
				c-10.898-32.877-17.185-64.262-18.684-93.284c-1.877-36.329,3.783-69.038,16.821-97.221
				c30.931-66.855,103.125-108.901,214.579-124.972l0.275,1.911c-110.762,15.971-182.459,57.646-213.099,123.867
				c-29.243,63.201-15.093,137.689,1.926,189.048c18.47,55.736,44.214,97.025,44.472,97.435L181.438,517.704z"/>
		</g>
		<g>
			<path style="fill:#F9EADA;" d="M812.626,474.887l-1.852-0.549c32.011-108.094,0.5-135.634-29.974-162.266
				c-14.537-12.705-29.569-25.842-36.974-47.53c-3.565-10.444-3.032-22.797-2.412-37.101c0.501-11.582,1.068-24.71-0.503-39.068
				c-4.709-43.035-29.875-71.397-74.799-84.298c-33.619-9.653-66.3-6.519-66.625-6.486l-0.194-1.922
				c0.332-0.033,33.33-3.206,67.302,6.537c20.003,5.737,36.438,14.761,48.846,26.822c15.533,15.097,24.747,34.993,27.39,59.136
				c1.587,14.505,1.016,27.711,0.512,39.362c-0.611,14.109-1.138,26.293,2.31,36.394c7.238,21.199,21.411,33.586,36.417,46.7
				C813.004,337.652,844.988,365.606,812.626,474.887z"/>
		</g>
		<g>
			<g>
				<g>
					<path style="fill:#F9EADA;" d="M168.978,515.391h565.51c0,0,100.133-64.273,69.863-149.354
						c-16.243-45.654-62.335-52.473-76.179-86.51c-19.543-48.058,15.005-96.01-36.106-145.105
						C623.39,68.465,447.625,75.717,350.653,99.256C154.574,146.853,73.407,333.01,168.978,515.391z"/>
				</g>
			</g>
		</g>
		<g>
			<g>
				<g>
					<g>
						<g>
							<g>
								<rect x="194.107" y="217.164" style="fill:#FFFFFF;" width="36.614" height="1.992"/>
							</g>
						</g>
					</g>
				</g>
			</g>
			<g>
				<g>
					<g>
						<g>
							<g>
								<rect x="227.67" y="200.637" style="fill:#FFFFFF;" width="36.614" height="1.992"/>
							</g>
						</g>
					</g>
				</g>
			</g>
		</g>
		<g>
			<g>
				<g>
					<g>
						<g>
							<g>
								<g>
									<path style="fill:#5E3B3B;" d="M98.754,421.631c0,0-4.191-11.104-2.753-18.964l6.726,0.47c0,0-3.194,10.6-1.465,18.396
										L98.754,421.631z"/>
								</g>
							</g>
						</g>
					</g>
				</g>
				<g>
					<g>
						<g>
							<g>
								<g>
									<path style="fill:#F0606C;" d="M168.608,457.952c-0.723,29.306-18.673,51.789-40.097,50.224
										c-2.58-0.187-5.091-0.717-7.51-1.553c-1.745,1.872-3.716,3.516-5.907,4.891c-18.189,11.419-44.586-0.032-58.951-25.584
										c-14.368-25.546-11.268-55.517,6.921-66.936c10.731-6.736,24.316-5.514,36.602,1.866
										c7.396-12.276,18.825-19.721,31.461-18.798C152.551,403.626,169.332,428.651,168.608,457.952z"/>
								</g>
							</g>
						</g>
					</g>
				</g>
				<g>
					<g>
						<g>
							<g>
								<g>
									<path style="fill:#E14E4E;" d="M163.789,481.748c-6.843,16.72-20.199,27.525-35.277,26.424
										c-2.578-0.187-5.089-0.716-7.512-1.545c-1.746,1.868-3.717,3.513-5.91,4.883c-18.181,11.423-44.578-0.024-58.95-25.585
										c-12.07-21.46-11.813-46.038-0.639-60.116c-4.953,14.08-3.051,32.753,6.384,49.518
										c14.371,25.552,40.768,37.007,58.95,25.585c2.191-1.378,4.163-3.023,5.909-4.891c2.424,0.838,4.935,1.367,7.513,1.553
										C145.837,498.424,156.404,492.239,163.789,481.748z"/>
								</g>
							</g>
						</g>
					</g>
				</g>
				<g>
					<g>
						<g>
							<g>
								<g>
									<path style="fill:#5E3B3B;" d="M140.348,501.799l-1.208-2.28c6.815-3.613,12.64-9.885,16.845-18.14l2.299,1.171
										C153.837,491.28,147.635,497.936,140.348,501.799z"/>
								</g>
							</g>
						</g>
					</g>
				</g>
				<g>
					<g>
						<g>
							<g>
								<g>
									<g>
										<path style="fill:#5E3B3B;" d="M58.222,437.649l-2.365-1.031c2.514-5.765,6.403-10.419,11.247-13.46l1.372,2.185
											C64.011,428.147,60.561,432.287,58.222,437.649z"/>
									</g>
								</g>
							</g>
						</g>
					</g>
					<g>
						<g>
							<g>
								<g>
									<g>
										<path style="fill:#5E3B3B;" d="M60.579,483.746c-6.305-11.21-9.082-23.699-7.819-35.168l2.565,0.283
											c-1.204,10.936,1.46,22.876,7.503,33.62L60.579,483.746z"/>
									</g>
								</g>
							</g>
						</g>
					</g>
				</g>
			</g>
			<g>
				<g>
					<g>
						<g>
							<g>
								<path style="fill:#5E3B3B;" d="M154.177,416.676c-16.486-21.209-36.289-10.762-37.124-10.306l-1.239-2.263
									c0.223-0.122,22.538-11.993,40.4,10.985L154.177,416.676z"/>
							</g>
						</g>
					</g>
				</g>
			</g>
			<g>
				<g>
					<g>
						<g>
							<g>
								<path style="fill:#FF7182;" d="M149.07,429.259c-2.703,4.753-10.546,5.393-17.517,1.428
									c-6.971-3.965-10.431-11.032-7.728-15.785c2.703-4.753,10.546-5.393,17.517-1.428
									C148.313,417.439,151.773,424.506,149.07,429.259z"/>
							</g>
						</g>
					</g>
				</g>
			</g>
		</g>
		<g>
			<g>
				<g>
					<g>
						<g>
							<g>
								<polygon style="fill:#FFFFFF;" points="490.622,116.196 454.008,116.196 453.943,114.265 490.622,114.265 								"/>
							</g>
						</g>
					</g>
				</g>
			</g>
		</g>
		<g>
			<g>
				<g>
					<g>
						<g>
							<g>
								<rect x="173.238" y="424.813" style="fill:#FFFFFF;" width="36.614" height="1.992"/>
							</g>
						</g>
					</g>
				</g>
			</g>
		</g>
		<g>
			<g>
				<g>
					<g>
						<g>
							<g>
								<rect x="565.321" y="158.136" style="fill:#FFFFFF;" width="36.615" height="1.992"/>
							</g>
						</g>
					</g>
				</g>
			</g>
			<g>
				<g>
					<g>
						<g>
							<g>
								<rect x="598.884" y="141.609" style="fill:#FFFFFF;" width="36.615" height="1.992"/>
							</g>
						</g>
					</g>
				</g>
			</g>
			<g>
				<g>
					<g>
						<g>
							<g>
								<rect x="625.073" y="158.136" style="fill:#FFFFFF;" width="36.615" height="1.992"/>
							</g>
						</g>
					</g>
				</g>
			</g>
		</g>
		<g>
			<g>
				<g>
					<g>
						<g>
							<g>
								<g>
									<g>
										<path style="fill:#17A37C;" d="M566.061,301.964c-5.264,10.505-10.438,20.113-10.438,20.113s-19.377-12.384-39.042-21.65
											c-9.012-4.246-14.411-10.081-12.81-16.902c1.84-7.84,11.382-7.936,11.382-7.936s-9.018-4.53-13.509-5.95
											c-7.525-2.38-20.646-10.793-18.195-21.183c2.976-12.613,18.405-8.86,18.405-8.86s-6.741-7.349-11.272-11.495
											c-7.903-7.232-13.793-19.564-6.81-29.859c8.413-12.405,19.538-10.77,28.373-6.917c6.451,2.813,17.224,11.944,23.019,27.18
											c0,0,7.723-9.355,15.48-5.355c7.757,4,17.665,18.439,6.753,48.464c0,0,13.375-6.794,17.841,2.736
											C580.099,274.72,572.315,289.481,566.061,301.964z"/>
									</g>
								</g>
							</g>
						</g>
					</g>
					<g>
						<g>
							<g>
								<g>
									<g>
										<path style="fill:#5E3B3B;" d="M555.358,323.003c-0.138-0.724-14.255-72.908-54.176-117.613l1.187-1.06
											c40.218,45.039,54.413,117.647,54.552,118.375L555.358,323.003z"/>
									</g>
								</g>
							</g>
						</g>
					</g>
					<g>
						<g>
							<g>
								<g>
									<g>
										<path style="fill:#5E3B3B;" d="M490.044,228.688c-8.564-7.837-14.029-20.428-6.932-30.893
											c6.946-10.241,16.82-12.662,29.35-7.2l-0.636,1.459c-11.891-5.184-20.853-3.015-27.397,6.634
											c-6.564,9.679-1.37,21.452,6.689,28.826L490.044,228.688z"/>
									</g>
								</g>
							</g>
						</g>
					</g>
					<g>
						<g>
							<g>
								<g>
									<g>
										<path style="fill:#5E3B3B;" d="M525.072,305.509c-3.054-1.573-6.026-3.041-8.83-4.362
											c-10.118-4.767-14.822-11.09-13.245-17.804c1.314-5.598,6.279-7.532,9.44-8.2c-2.974-1.435-8.055-3.805-11.033-4.747
											l0.48-1.517c4.5,1.423,13.256,5.812,13.627,5.998l2.918,1.466l-3.266,0.041c-0.364,0.004-8.943,0.193-10.617,7.323
											c-1.87,7.967,6.951,13.445,12.374,16.001c2.822,1.329,5.81,2.805,8.881,4.386L525.072,305.509z"/>
									</g>
								</g>
							</g>
						</g>
					</g>
					<g>
						<g>
							<g>
								<g>
									<g>
										<path style="fill:#5E3B3B;" d="M566.861,301.721l-1.423-0.713l0.672-1.34c6.103-12.154,13.019-25.928,8.497-35.58
											l1.44-0.675c4.851,10.351-2.25,24.492-8.515,36.969L566.861,301.721z"/>
									</g>
								</g>
							</g>
						</g>
					</g>
					<g>
						<g>
							<g>
								<g>
									<g>
										<path style="fill:#5E3B3B;" d="M535.777,219.011l-1.226-1.014c0.331-0.402,8.229-9.801,16.457-5.555
											c2.827,1.457,5.478,4.006,7.466,7.179l-1.348,0.845c-1.84-2.934-4.272-5.282-6.847-6.61
											C543.187,210.2,535.85,218.922,535.777,219.011z"/>
									</g>
								</g>
							</g>
						</g>
					</g>
					<g>
						<g>
							<g>
								<g>
									<g>
										<path style="fill:#5E3B3B;" d="M554.703,259.272l-1.542-0.396c1.903-7.41,2.678-14.548,2.305-21.217l1.589-0.089
											C557.438,244.403,556.646,251.705,554.703,259.272z"/>
									</g>
								</g>
							</g>
						</g>
					</g>
					<g>
						<g>
							<g>
								<g>
									<g>
										<path style="fill:#5E3B3B;" d="M554.471,229.957c-1.196-5.707-2.981-8.766-2.999-8.796l1.368-0.813
											c0.078,0.132,1.932,3.29,3.189,9.283L554.471,229.957z"/>
									</g>
								</g>
							</g>
						</g>
					</g>
				</g>
				<g>
					<g>
						<g>
							<g>
								<g>
									<g>
										<path style="fill:#57D0AF;" d="M586.507,335.704c-8.99,4.819-17.467,9.045-17.467,9.045s-7.549-18.479-16.863-34.89
											c-4.268-7.521-5.179-14.361-0.63-18.398c5.228-4.641,12.044,0.065,12.044,0.065s-4.131-7.725-6.606-10.98
											c-4.147-5.453-9.245-17.985-2.308-24.129c8.421-7.458,17.488,2.923,17.488,2.923s-1.105-8.586-2.245-13.793
											c-1.988-9.084,0.004-20.778,10.108-24.588c12.174-4.59,19.247,2.135,23.587,9.289c3.169,5.223,6.242,17.09,2.73,30.796
											c0,0,10.159-2.772,13.659,3.947c3.501,6.718,3.305,21.918-19.457,37.757c0,0,12.887,1.872,11.287,10.867
											C610.094,323.401,597.188,329.978,586.507,335.704z"/>
									</g>
								</g>
							</g>
						</g>
					</g>
					<g>
						<g>
							<g>
								<g>
									<g>
										<path style="fill:#5E3B3B;" d="M569.742,345.887l-1.449-0.658c0.264-0.582,26.352-58.823,20.405-110.476l1.581-0.182
											C596.277,286.668,570.008,345.301,569.742,345.887z"/>
									</g>
								</g>
							</g>
						</g>
					</g>
					<g>
						<g>
							<g>
								<g>
									<g>
										<path style="fill:#5E3B3B;" d="M569.143,245.716c-2.164-9.888,0.276-21.608,10.605-25.502
											c10.104-3.81,18.364-0.573,24.548,9.621l-1.36,0.826c-5.81-9.577-13.212-12.508-22.627-8.958
											c-9.439,3.559-11.629,14.454-9.611,23.673L569.143,245.716z"/>
									</g>
								</g>
							</g>
						</g>
					</g>
					<g>
						<g>
							<g>
								<g>
									<g>
										<path style="fill:#5E3B3B;" d="M555.565,317.76c-1.375-2.634-2.747-5.161-4.079-7.509
											c-4.819-8.491-4.985-15.375-0.467-19.386c3.642-3.232,7.991-2.302,10.63-1.228c-1.409-2.526-3.715-6.531-5.297-8.611
											l1.267-0.963c2.485,3.267,6.504,10.768,6.674,11.087l1.539,2.877l-2.691-1.847c-0.259-0.177-6.375-4.289-11.064-0.125
											c-5.258,4.667-1.759,12.911,0.794,17.411c1.341,2.365,2.723,4.907,4.106,7.558L555.565,317.76z"/>
									</g>
								</g>
							</g>
						</g>
					</g>
					<g>
						<g>
							<g>
								<g>
									<g>
										<path style="fill:#5E3B3B;" d="M587.168,336.018l-0.752-1.403l1.146-0.613c10.388-5.557,22.163-11.855,23.775-20.915
											l1.566,0.278c-1.747,9.82-13.884,16.312-24.591,22.039L587.168,336.018z"/>
									</g>
								</g>
							</g>
						</g>
					</g>
					<g>
						<g>
							<g>
								<g>
									<g>
										<path style="fill:#5E3B3B;" d="M620.837,273.418c0.163-2.983-0.383-5.846-1.538-8.06
											c-3.161-6.065-12.65-3.572-12.745-3.546l-0.418-1.535c0.44-0.12,10.821-2.858,14.574,4.346
											c0.909,1.743,1.944,4.699,1.716,8.882L620.837,273.418z"/>
									</g>
								</g>
							</g>
						</g>
					</g>
					<g>
						<g>
							<g>
								<g>
									<g>
										<path style="fill:#5E3B3B;" d="M599.877,299.819l-1.031-1.211c5.048-4.297,9.162-8.965,12.229-13.873l1.349,0.843
											C609.271,290.624,605.05,295.415,599.877,299.819z"/>
									</g>
								</g>
							</g>
						</g>
					</g>
					<g>
						<g>
							<g>
								<g>
									<g>
										<path style="fill:#5E3B3B;" d="M615.675,279.417l-1.461-0.631c1.999-4.628,2.264-7.677,2.266-7.707l1.586,0.124
											C618.056,271.336,617.79,274.521,615.675,279.417z"/>
									</g>
								</g>
							</g>
						</g>
					</g>
				</g>
			</g>
			<g>
				<g>
					<g>
						<g>
							<g>
								<path style="fill:#5E3B3B;" d="M529.515,200.416c-12.817-18.013-28.715-17.89-28.871-17.885l-0.034-1.591
									c0.684-0.014,16.902-0.138,30.201,18.553L529.515,200.416z"/>
							</g>
						</g>
					</g>
				</g>
			</g>
		</g>
		<g>
			<path style="fill:#5E3B3B;" d="M315.379,150.868c0,0-6.646-21.013,13.312-20.449l1.613,12.329L315.379,150.868z"/>
		</g>
		<g>
			<g>
				<g>
					<g>
						<g>
							<g>
								<rect x="162.905" y="515.427" style="fill:#5E3B3B;" width="84.06" height="2.142"/>
							</g>
						</g>
					</g>
				</g>
			</g>
			<g>
				<g>
					<g>
						<g>
							<g>
								<rect x="414.977" y="515.427" style="fill:#5E3B3B;" width="109.434" height="2.142"/>
							</g>
						</g>
					</g>
				</g>
			</g>
			<g>
				<g>
					<g>
						<g>
							<g>
								<polygon style="fill:#FFFFFF;" points="445.355,439.599 444.401,439.599 423.374,372.032 425.827,371.269 446.574,437.932 
									445.35,438.313 								"/>
							</g>
						</g>
					</g>
				</g>
			</g>
			<g>
				<g>
					<g>
						<g>
							<g>
								
									<rect x="408.879" y="302.379" transform="matrix(0.9548 -0.2972 0.2972 0.9548 -78.1252 136.5783)" style="fill:#FFFFFF;" width="2.57" height="45.751"/>
							</g>
						</g>
					</g>
				</g>
			</g>
			<g>
				<g>
					<g>
						<g>
							<g>
								<path style="fill:#E14E4E;" d="M692.223,515.882H550.755c0-17.439-5.614-33.698-15.132-46.988l115.108-81.819
									C676.815,423.535,692.223,468.051,692.223,515.882z"/>
							</g>
						</g>
					</g>
				</g>
			</g>
			<g>
				<g>
					<g>
						<g>
							<g>
								<path style="fill:#F0606C;" d="M650.73,387.074l-115.108,81.819c-9.771-13.676-23.659-24.242-39.784-29.832l13.156-38.367
									l32.706-95.377C585.886,320.655,623.945,349.613,650.73,387.074z"/>
							</g>
						</g>
					</g>
				</g>
			</g>
			<g>
				<g>
					<g>
						<g>
							<g>
								<path style="fill:#FF9E7E;" d="M541.701,305.318l-32.706,95.377l-13.156,38.367c-8.275-2.874-17.148-4.441-26.344-4.441
									c-8.385,0-16.502,1.291-24.139,3.693l-20.754-66.663l-7.637-24.557l-13.597-43.681
									c20.927-6.661,43.146-10.259,66.128-10.259C494.713,293.153,519.018,297.436,541.701,305.318z"/>
							</g>
						</g>
					</g>
				</g>
			</g>
			<g>
				<g>
					<g>
						<g>
							<g>
								<path style="fill:#57D0AF;" d="M246.766,515.882c0.252-47.641,15.778-92.11,41.878-128.587l114.635,81.701
									c-0.008,0.016-0.016,0.024-0.024,0.039c-9.369,13.164-14.928,29.194-15.022,46.413L246.766,515.882z"/>
							</g>
						</g>
					</g>
				</g>
			</g>
			<g>
				<g>
					<g>
						<g>
							<g>
								
									<rect x="344.689" y="357.742" transform="matrix(0.5801 -0.8145 0.8145 0.5801 -203.4541 461.5681)" style="fill:#FFFFFF;" width="2.57" height="140.767"/>
							</g>
						</g>
					</g>
				</g>
			</g>
			<g>
				<g>
					<g>
						<g>
							<g>
								<path style="fill:#17A37C;" d="M451.303,436.699c-2.013,0.463-3.992,1.002-5.945,1.619h-0.009
									c-17.098,5.397-31.824,16.319-42.043,30.641c-0.009,0.017-0.017,0.017-0.026,0.034c-0.009,0.017-0.017,0.026-0.026,0.043
									c-0.925,1.294-1.807,2.621-2.647,3.966L280.51,387.409c30.907-43.191,75.246-76.239,126.634-92.592l15.008,48.219
									l8.429,27.104L451.303,436.699z"/>
							</g>
						</g>
					</g>
				</g>
			</g>
			<g>
				<g>
					<g>
						<g>
							<g>
								<path style="fill:#16916B;" d="M451.307,436.698c-2.013,0.463-3.992,1.002-5.945,1.619h-0.008
									c-17.098,5.397-31.824,16.319-42.043,30.641c-0.009,0.017-0.017,0.017-0.026,0.034c-0.009,0.017-0.017,0.026-0.026,0.043
									c-0.925,1.293-1.807,2.621-2.647,3.966l-120.098-85.594L451.307,436.698z"/>
							</g>
						</g>
					</g>
				</g>
			</g>
			<g>
				<g>
					<g>
						<g>
							<g>
								
									<rect x="448.075" y="370.905" transform="matrix(0.3242 -0.946 0.946 0.3242 -1.5124 742.2622)" style="fill:#FFFFFF;" width="141.389" height="2.57"/>
							</g>
						</g>
					</g>
				</g>
			</g>
			<g>
				<g>
					<g>
						<g>
							<g>
								
									<rect x="522.564" y="426.699" transform="matrix(0.8151 -0.5794 0.5794 0.8151 -138.2617 422.825)" style="fill:#FFFFFF;" width="141.224" height="2.57"/>
							</g>
						</g>
					</g>
				</g>
			</g>
			<g>
				<g>
					<g>
						<g>
							<g>
								<path style="fill:#5E3B3B;" d="M400.975,474.841l-122.259-87.133l0.749-1.047c31.407-43.889,76.613-76.942,127.289-93.068
									l1.222-0.389l11.083,34.535l-2.447,0.785l-10.299-32.09c-49.254,15.968-93.207,48.109-124.007,90.678l117.944,84.058
									c0.629-0.97,1.268-1.911,1.908-2.81l0.148-0.212c10.475-14.651,25.62-25.679,42.655-31.055l0.198-0.059
									c1.484-0.465,2.996-0.889,4.512-1.266l-24.635-80.156l2.456-0.754l25.444,82.784l-1.346,0.31
									c-1.962,0.451-3.928,0.986-5.845,1.593l-0.197,0.059c-16.424,5.229-31.023,15.883-41.137,30.021l-0.113,0.162
									c-0.876,1.226-1.751,2.536-2.6,3.897L400.975,474.841z M402.386,468.068c-0.006,0.006-0.012,0.012-0.018,0.018
									L402.386,468.068z"/>
							</g>
						</g>
					</g>
				</g>
			</g>
			<g>
				<g>
					<g>
						<g>
							<g>
								<path style="fill:#5E3B3B;" d="M246.088,517.572l0.006-1.08c0.205-38.781,10.674-77.14,30.275-110.928l1.852,1.074
									c-19.231,33.151-29.587,70.747-29.978,108.786l39.093-0.12l0.007,2.141L246.088,517.572z"/>
							</g>
						</g>
					</g>
				</g>
			</g>
			<g>
				<g>
					<g>
						<g>
							<g>
								
									<rect x="71.481" y="515.104" transform="matrix(1 -0.0031 0.0031 1 -1.6143 0.3322)" style="fill:#5E3B3B;" width="67.794" height="2.142"/>
							</g>
						</g>
					</g>
				</g>
			</g>
			<g>
				<g>
					<g>
						<g>
							<g>
								<rect x="551.153" y="515.427" style="fill:#5E3B3B;" width="42.29" height="2.142"/>
							</g>
						</g>
					</g>
				</g>
			</g>
			<g>
				<g>
					<g>
						<g>
							<g>
								<path style="fill:#5E3B3B;" d="M542.451,304.922c26.229,9.111,50.765,23.3,72.048,41.411l-2.118,1.003
									c-20.908-17.645-44.948-31.479-70.63-40.387c-18.689-6.496-38.178-10.419-57.941-11.665l0.142-2.138
									C503.898,294.402,523.58,298.365,542.451,304.922z"/>
							</g>
							<g>
								<path style="fill:#5E3B3B;" d="M693.693,516.496v1.074h-66.191v-2.138h64.042c-0.112-21.861-3.415-43.296-9.78-63.829
									l2.047-0.628C690.339,472.035,693.693,494.048,693.693,516.496z"/>
							</g>
						</g>
					</g>
				</g>
			</g>
			<g>
				<g>
					<g>
						<g>
							<g>
								<path style="fill:#5E3B3B;" d="M426.41,299.231l-0.429-2.098c9.511-1.945,19.252-3.266,28.952-3.926l0.146,2.137
									C445.473,295.997,435.828,297.306,426.41,299.231z"/>
							</g>
						</g>
					</g>
				</g>
			</g>
			<g>
				<g>
					<g>
						<g>
							<g>
								<path style="fill:#503D39;" d="M433.648,456.565h11.375c3.883,0,6.717,0.903,8.498,2.707
									c1.781,1.805,2.672,4.581,2.672,8.326v1.919c0,2.467-0.4,4.478-1.199,6.031c-0.8,1.553-2.022,2.673-3.667,3.358v0.137
									c3.746,1.279,5.62,4.615,5.62,10.005v4.112c0,3.701-0.971,6.522-2.913,8.463c-1.942,1.942-4.787,2.913-8.532,2.913h-11.855
									V456.565z M444.132,476.096c1.508,0,2.639-0.387,3.393-1.165c0.754-0.776,1.13-2.079,1.13-3.907v-2.673
									c0-1.736-0.308-2.991-0.925-3.769c-0.616-0.776-1.588-1.165-2.912-1.165h-3.632v12.678H444.132z M445.504,497.683
									c1.324,0,2.306-0.353,2.946-1.062c0.64-0.708,0.96-1.929,0.96-3.666v-4.181c0-2.193-0.376-3.711-1.13-4.557
									c-0.754-0.845-1.999-1.268-3.735-1.268h-3.358v14.734H445.504z"/>
							</g>
						</g>
					</g>
				</g>
				<g>
					<g>
						<g>
							<g>
								<path style="fill:#503D39;" d="M461.333,456.565h10.759l4.798,34.333h0.136l4.798-34.333h10.759v47.971h-7.126v-36.321
									h-0.137l-5.483,36.321h-6.305l-5.482-36.321h-0.137v36.321h-6.579V456.565z"/>
							</g>
						</g>
					</g>
				</g>
				<g>
					<g>
						<g>
							<g>
								<path style="fill:#503D39;" d="M498.202,456.565h7.538v47.971h-7.538V456.565z"/>
							</g>
						</g>
					</g>
				</g>
			</g>
			<g>
				<g>
					<g>
						<g>
							<g>
								<g>
									<path style="fill:#FFFFFF;" d="M330.29,372.165h4.729l3.667,14.357h0.068v-14.357h3.359v23.985h-3.872l-4.523-17.51h-0.069
										v17.51h-3.358V372.165z"/>
								</g>
							</g>
						</g>
					</g>
				</g>
				<g>
					<g>
						<g>
							<g>
								<g>
									<path style="fill:#FFFFFF;" d="M346.12,394.916c-0.982-1.05-1.473-2.536-1.473-4.455v-12.609
										c0-1.919,0.491-3.403,1.473-4.455c0.982-1.05,2.398-1.576,4.249-1.576c1.85,0,3.267,0.526,4.249,1.576
										c0.982,1.052,1.473,2.536,1.473,4.455v12.609c0,1.919-0.491,3.405-1.473,4.455c-0.982,1.052-2.398,1.577-4.249,1.577
										C348.518,396.493,347.102,395.968,346.12,394.916z M352.322,390.702v-13.089c0-1.576-0.652-2.364-1.953-2.364
										c-1.302,0-1.953,0.788-1.953,2.364v13.089c0,1.576,0.652,2.364,1.953,2.364
										C351.671,393.066,352.322,392.278,352.322,390.702z"/>
								</g>
							</g>
						</g>
					</g>
				</g>
				<g>
					<g>
						<g>
							<g>
								<g>
									<path style="fill:#FFFFFF;" d="M358.626,372.165h5.586c1.941,0,3.358,0.451,4.249,1.353
										c0.891,0.903,1.336,2.29,1.336,4.163v1.474c0,2.49-0.822,4.066-2.467,4.728v0.069c0.913,0.274,1.559,0.834,1.936,1.679
										c0.377,0.846,0.566,1.976,0.566,3.392v4.214c0,0.685,0.023,1.24,0.069,1.662c0.046,0.423,0.16,0.839,0.343,1.251h-3.838
										c-0.137-0.388-0.228-0.754-0.274-1.097c-0.046-0.343-0.069-0.96-0.069-1.85v-4.386c0-1.096-0.177-1.861-0.531-2.296
										c-0.355-0.433-0.965-0.651-1.834-0.651h-1.302v10.279h-3.77V372.165z M363.766,382.444c0.754,0,1.319-0.194,1.696-0.583
										c0.377-0.388,0.566-1.039,0.566-1.952v-1.85c0-0.868-0.155-1.496-0.463-1.885c-0.309-0.388-0.794-0.582-1.456-0.582h-1.713
										v6.853H363.766z"/>
								</g>
							</g>
						</g>
					</g>
				</g>
				<g>
					<g>
						<g>
							<g>
								<g>
									<path style="fill:#FFFFFF;" d="M372.435,372.165h5.38l2.398,17.167h0.069l2.398-17.167h5.38v23.985h-3.564v-18.16h-0.069
										l-2.741,18.16h-3.153l-2.741-18.16h-0.068v18.16h-3.29V372.165z"/>
								</g>
							</g>
						</g>
					</g>
				</g>
				<g>
					<g>
						<g>
							<g>
								<g>
									<path style="fill:#FFFFFF;" d="M393.782,372.165h5.105l3.906,23.985h-3.769l-0.685-4.763v0.069h-4.283l-0.686,4.695h-3.494
										L393.782,372.165z M397.894,388.201l-1.679-11.855h-0.069l-1.645,11.855H397.894z"/>
								</g>
							</g>
						</g>
					</g>
				</g>
				<g>
					<g>
						<g>
							<g>
								<g>
									<path style="fill:#FFFFFF;" d="M404.61,372.165h3.77v20.559h6.202v3.426h-9.972V372.165z"/>
								</g>
							</g>
						</g>
					</g>
				</g>
			</g>
			<g>
				<g>
					<g>
						<g>
							<g>
								<g>
									<path style="fill:#FFFFFF;" d="M546.237,382.011c-0.688-0.735-1.031-1.775-1.031-3.119v-8.826
										c0-1.344,0.344-2.383,1.031-3.118c0.688-0.735,1.679-1.103,2.974-1.103c1.296,0,2.287,0.368,2.975,1.103
										c0.687,0.735,1.031,1.774,1.031,3.118v8.826c0,1.344-0.345,2.383-1.031,3.119c-0.688,0.735-1.679,1.102-2.975,1.102
										C547.916,383.114,546.924,382.746,546.237,382.011z M550.578,379.061v-9.163c0-1.103-0.456-1.655-1.368-1.655
										c-0.911,0-1.367,0.551-1.367,1.655v9.163c0,1.103,0.456,1.655,1.367,1.655
										C550.123,380.715,550.578,380.164,550.578,379.061z"/>
								</g>
							</g>
						</g>
					</g>
				</g>
				<g>
					<g>
						<g>
							<g>
								<g>
									<path style="fill:#FFFFFF;" d="M554.992,366.084h3.981c1.359,0,2.351,0.316,2.974,0.948
										c0.624,0.632,0.936,1.603,0.936,2.915v0.671c0,0.864-0.141,1.568-0.42,2.111c-0.28,0.544-0.708,0.936-1.283,1.175v0.049
										c1.311,0.448,1.967,1.615,1.967,3.502v1.439c0,1.295-0.34,2.283-1.02,2.962c-0.679,0.68-1.675,1.02-2.986,1.02h-4.149
										V366.084z M558.661,372.92c0.528,0,0.924-0.136,1.188-0.408c0.264-0.271,0.396-0.727,0.396-1.367v-0.935
										c0-0.607-0.108-1.047-0.324-1.319c-0.216-0.272-0.556-0.407-1.02-0.407h-1.272v4.437H558.661z M559.141,380.476
										c0.463,0,0.807-0.124,1.031-0.372c0.223-0.248,0.336-0.675,0.336-1.283v-1.463c0-0.767-0.132-1.299-0.396-1.594
										c-0.264-0.296-0.699-0.444-1.307-0.444h-1.175v5.157H559.141z"/>
								</g>
							</g>
						</g>
					</g>
				</g>
				<g>
					<g>
						<g>
							<g>
								<g>
									<path style="fill:#FFFFFF;" d="M564.682,366.084h7.195v2.399h-4.557v4.437h3.622v2.398h-3.622v5.157h4.557v2.398h-7.195
										V366.084z"/>
								</g>
							</g>
						</g>
					</g>
				</g>
				<g>
					<g>
						<g>
							<g>
								<g>
									<path style="fill:#FFFFFF;" d="M573.963,382.023c-0.656-0.728-0.983-1.771-0.983-3.13v-0.96h2.495v1.152
										c0,1.087,0.455,1.63,1.367,1.63c0.448,0,0.787-0.131,1.02-0.396c0.231-0.264,0.347-0.691,0.347-1.283
										c0-0.703-0.16-1.322-0.479-1.859c-0.32-0.535-0.912-1.179-1.775-1.931c-1.087-0.96-1.847-1.826-2.279-2.603
										c-0.432-0.775-0.647-1.65-0.647-2.626c0-1.328,0.336-2.355,1.007-3.083c0.672-0.727,1.647-1.091,2.926-1.091
										c1.263,0,2.219,0.364,2.867,1.091c0.647,0.728,0.971,1.771,0.971,3.13v0.695h-2.495v-0.863
										c0-0.576-0.112-0.995-0.335-1.259c-0.224-0.263-0.552-0.396-0.984-0.396c-0.879,0-1.319,0.535-1.319,1.607
										c0,0.608,0.164,1.175,0.492,1.703c0.327,0.527,0.924,1.167,1.787,1.918c1.103,0.96,1.862,1.831,2.279,2.615
										c0.416,0.783,0.623,1.702,0.623,2.758c0,1.375-0.34,2.431-1.019,3.166c-0.68,0.735-1.667,1.102-2.962,1.102
										C575.586,383.114,574.619,382.751,573.963,382.023z"/>
								</g>
							</g>
						</g>
					</g>
				</g>
				<g>
					<g>
						<g>
							<g>
								<g>
									<path style="fill:#FFFFFF;" d="M582.359,366.084h2.638v16.79h-2.638V366.084z"/>
								</g>
							</g>
						</g>
					</g>
				</g>
				<g>
					<g>
						<g>
							<g>
								<g>
									<path style="fill:#FFFFFF;" d="M589.025,368.483h-2.758v-2.399h8.156v2.399h-2.759v14.391h-2.638V368.483z"/>
								</g>
							</g>
						</g>
					</g>
				</g>
				<g>
					<g>
						<g>
							<g>
								<g>
									<path style="fill:#FFFFFF;" d="M598.212,375.726l-3.19-9.642h2.807l1.799,6.164h0.048l1.799-6.164h2.567l-3.191,9.642
										v7.148h-2.638V375.726z"/>
								</g>
							</g>
						</g>
					</g>
				</g>
			</g>
			<g>
				<g>
					<g>
						<g>
							<g>
								<g>
									<path style="fill:#FFFFFF;" d="M587.181,446.045h7.195v2.399h-4.557v4.437h3.622v2.398h-3.622v5.157h4.557v2.398h-7.195
										V446.045z"/>
								</g>
							</g>
						</g>
					</g>
				</g>
				<g>
					<g>
						<g>
							<g>
								<g>
									<path style="fill:#FFFFFF;" d="M598.261,454.248l-2.903-8.203h2.782l1.775,5.421h0.048l1.824-5.421h2.494l-2.902,8.203
										l3.046,8.587h-2.782l-1.918-5.852h-0.049l-1.967,5.852h-2.495L598.261,454.248z"/>
								</g>
							</g>
						</g>
					</g>
				</g>
				<g>
					<g>
						<g>
							<g>
								<g>
									<path style="fill:#FFFFFF;" d="M607.735,448.444h-2.758v-2.399h8.155v2.399h-2.759v14.391h-2.638V448.444z"/>
								</g>
							</g>
						</g>
					</g>
				</g>
				<g>
					<g>
						<g>
							<g>
								<g>
									<path style="fill:#FFFFFF;" d="M614.403,446.045h3.909c1.359,0,2.351,0.316,2.974,0.948
										c0.624,0.632,0.936,1.603,0.936,2.915v1.031c0,1.743-0.576,2.847-1.727,3.31v0.049c0.64,0.192,1.092,0.584,1.355,1.174
										c0.264,0.592,0.396,1.384,0.396,2.375v2.951c0,0.479,0.016,0.867,0.049,1.163c0.032,0.296,0.111,0.588,0.239,0.876h-2.686
										c-0.096-0.272-0.16-0.528-0.192-0.768c-0.033-0.239-0.048-0.672-0.048-1.295v-3.07c0-0.768-0.124-1.303-0.371-1.607
										c-0.249-0.304-0.676-0.456-1.283-0.456h-0.912v7.196h-2.638V446.045z M618.001,453.241c0.528,0,0.923-0.135,1.188-0.407
										c0.264-0.272,0.396-0.728,0.396-1.368v-1.295c0-0.607-0.108-1.047-0.324-1.319c-0.216-0.272-0.556-0.407-1.02-0.407h-1.2
										v4.797H618.001z"/>
								</g>
							</g>
						</g>
					</g>
				</g>
				<g>
					<g>
						<g>
							<g>
								<g>
									<path style="fill:#FFFFFF;" d="M624.07,446.045h7.195v2.399h-4.557v4.437h3.622v2.398h-3.622v5.157h4.557v2.398h-7.195
										V446.045z"/>
								</g>
							</g>
						</g>
					</g>
				</g>
				<g>
					<g>
						<g>
							<g>
								<g>
									<path style="fill:#FFFFFF;" d="M632.776,446.045h3.765l1.679,12.017h0.048l1.679-12.017h3.766v16.79h-2.495v-12.712h-0.048
										l-1.919,12.712h-2.207l-1.919-12.712h-0.048v12.712h-2.302V446.045z"/>
								</g>
							</g>
						</g>
					</g>
				</g>
				<g>
					<g>
						<g>
							<g>
								<g>
									<path style="fill:#FFFFFF;" d="M645.68,446.045h7.195v2.399h-4.557v4.437h3.622v2.398h-3.622v5.157h4.557v2.398h-7.195
										V446.045z"/>
								</g>
							</g>
						</g>
					</g>
				</g>
				<g>
					<g>
						<g>
							<g>
								<g>
									<path style="fill:#FFFFFF;" d="M654.387,446.045h2.638v14.392h4.342v2.398h-6.979V446.045z"/>
								</g>
							</g>
						</g>
					</g>
				</g>
				<g>
					<g>
						<g>
							<g>
								<g>
									<path style="fill:#FFFFFF;" d="M662.949,455.687l-3.19-9.642h2.807l1.798,6.164h0.048l1.799-6.164h2.567l-3.19,9.642v7.148
										h-2.638V455.687z"/>
								</g>
							</g>
						</g>
					</g>
				</g>
				<g>
					<g>
						<g>
							<g>
								<g>
									<path style="fill:#FFFFFF;" d="M599.496,490.754c-0.688-0.735-1.031-1.775-1.031-3.119v-8.826
										c0-1.343,0.344-2.383,1.031-3.118c0.688-0.735,1.679-1.103,2.974-1.103c1.296,0,2.287,0.368,2.975,1.103
										c0.687,0.735,1.031,1.775,1.031,3.118v8.826c0,1.344-0.345,2.383-1.031,3.119c-0.688,0.735-1.679,1.103-2.975,1.103
										C601.175,491.858,600.184,491.49,599.496,490.754z M603.838,487.804v-9.163c0-1.103-0.456-1.655-1.368-1.655
										c-0.911,0-1.367,0.552-1.367,1.655v9.163c0,1.103,0.456,1.655,1.367,1.655
										C603.382,489.459,603.838,488.907,603.838,487.804z"/>
								</g>
							</g>
						</g>
					</g>
				</g>
				<g>
					<g>
						<g>
							<g>
								<g>
									<path style="fill:#FFFFFF;" d="M608.251,474.828h3.981c1.359,0,2.351,0.315,2.974,0.947
										c0.624,0.632,0.936,1.604,0.936,2.915v0.672c0,0.863-0.141,1.567-0.42,2.111c-0.28,0.544-0.708,0.935-1.283,1.175v0.048
										c1.311,0.447,1.967,1.615,1.967,3.502v1.439c0,1.296-0.34,2.283-1.02,2.962c-0.679,0.68-1.675,1.02-2.986,1.02h-4.149
										V474.828z M611.921,481.664c0.528,0,0.924-0.135,1.188-0.407c0.264-0.272,0.396-0.728,0.396-1.368v-0.935
										c0-0.607-0.108-1.047-0.324-1.319c-0.216-0.272-0.556-0.407-1.02-0.407h-1.272v4.437H611.921z M612.401,489.219
										c0.463,0,0.807-0.124,1.031-0.372c0.223-0.248,0.336-0.675,0.336-1.283V486.1c0-0.767-0.132-1.298-0.396-1.594
										c-0.264-0.296-0.699-0.444-1.307-0.444h-1.175v5.157H612.401z"/>
								</g>
							</g>
						</g>
					</g>
				</g>
				<g>
					<g>
						<g>
							<g>
								<g>
									<path style="fill:#FFFFFF;" d="M617.941,474.828h7.195v2.398h-4.557v4.437h3.622v2.398h-3.622v5.157h4.557v2.398h-7.195
										V474.828z"/>
								</g>
							</g>
						</g>
					</g>
				</g>
				<g>
					<g>
						<g>
							<g>
								<g>
									<path style="fill:#FFFFFF;" d="M627.223,490.766c-0.656-0.727-0.983-1.771-0.983-3.13v-0.959h2.495v1.151
										c0,1.087,0.455,1.631,1.367,1.631c0.448,0,0.787-0.132,1.02-0.396c0.231-0.264,0.347-0.691,0.347-1.283
										c0-0.703-0.16-1.323-0.479-1.859c-0.32-0.535-0.912-1.179-1.775-1.931c-1.087-0.96-1.847-1.826-2.279-2.603
										c-0.432-0.775-0.647-1.65-0.647-2.626c0-1.328,0.336-2.355,1.007-3.083c0.672-0.727,1.647-1.091,2.926-1.091
										c1.263,0,2.219,0.364,2.867,1.091c0.648,0.728,0.971,1.772,0.971,3.13v0.696h-2.495v-0.864
										c0-0.576-0.112-0.995-0.336-1.259c-0.224-0.264-0.552-0.396-0.984-0.396c-0.879,0-1.319,0.536-1.319,1.607
										c0,0.608,0.164,1.175,0.492,1.703c0.327,0.528,0.924,1.167,1.787,1.919c1.103,0.959,1.862,1.831,2.279,2.614
										c0.416,0.784,0.623,1.703,0.623,2.758c0,1.375-0.34,2.431-1.019,3.166c-0.68,0.735-1.667,1.103-2.962,1.103
										C628.845,491.858,627.878,491.494,627.223,490.766z"/>
								</g>
							</g>
						</g>
					</g>
				</g>
				<g>
					<g>
						<g>
							<g>
								<g>
									<path style="fill:#FFFFFF;" d="M635.618,474.828h2.638v16.789h-2.638V474.828z"/>
								</g>
							</g>
						</g>
					</g>
				</g>
				<g>
					<g>
						<g>
							<g>
								<g>
									<path style="fill:#FFFFFF;" d="M642.285,477.227h-2.758v-2.398h8.156v2.398h-2.759v14.391h-2.638V477.227z"/>
								</g>
							</g>
						</g>
					</g>
				</g>
				<g>
					<g>
						<g>
							<g>
								<g>
									<path style="fill:#FFFFFF;" d="M651.471,484.47l-3.19-9.642h2.807l1.799,6.164h0.048l1.799-6.164h2.567l-3.191,9.642v7.147
										h-2.638V484.47z"/>
								</g>
							</g>
						</g>
					</g>
				</g>
			</g>
			<g>
				<g>
					<g>
						<g>
							<g>
								<g>
									<path style="fill:#FFFFFF;" d="M446.571,321.598h7.195v2.399h-4.557v4.437h3.622v2.399h-3.622v5.157h4.557v2.398h-7.195
										V321.598z"/>
								</g>
							</g>
						</g>
					</g>
				</g>
				<g>
					<g>
						<g>
							<g>
								<g>
									<path style="fill:#FFFFFF;" d="M457.651,329.801l-2.903-8.203h2.782l1.775,5.421h0.048l1.824-5.421h2.494l-2.902,8.203
										l3.046,8.587h-2.782l-1.918-5.852h-0.048l-1.967,5.852h-2.495L457.651,329.801z"/>
								</g>
							</g>
						</g>
					</g>
				</g>
				<g>
					<g>
						<g>
							<g>
								<g>
									<path style="fill:#FFFFFF;" d="M465.507,337.548c-0.664-0.72-0.995-1.735-0.995-3.046v-9.018
										c0-1.311,0.331-2.326,0.995-3.046c0.663-0.72,1.627-1.079,2.89-1.079c1.262,0,2.226,0.36,2.89,1.079
										c0.663,0.72,0.995,1.735,0.995,3.046v1.775h-2.495v-1.943c0-1.039-0.44-1.559-1.319-1.559c-0.88,0-1.319,0.52-1.319,1.559
										v9.378c0,1.024,0.439,1.535,1.319,1.535c0.879,0,1.319-0.511,1.319-1.535v-2.566h2.495v2.375
										c0,1.311-0.332,2.326-0.995,3.046c-0.664,0.719-1.628,1.08-2.89,1.08C467.134,338.628,466.17,338.267,465.507,337.548z"/>
								</g>
							</g>
						</g>
					</g>
				</g>
				<g>
					<g>
						<g>
							<g>
								<g>
									<path style="fill:#FFFFFF;" d="M473.865,321.598h7.195v2.399h-4.557v4.437h3.622v2.399h-3.622v5.157h4.557v2.398h-7.195
										V321.598z"/>
								</g>
							</g>
						</g>
					</g>
				</g>
				<g>
					<g>
						<g>
							<g>
								<g>
									<path style="fill:#FFFFFF;" d="M483.147,337.536c-0.656-0.728-0.983-1.771-0.983-3.13v-0.96h2.495v1.152
										c0,1.087,0.455,1.63,1.367,1.63c0.448,0,0.787-0.131,1.02-0.396c0.231-0.264,0.347-0.691,0.347-1.283
										c0-0.703-0.16-1.323-0.479-1.858c-0.32-0.536-0.912-1.179-1.775-1.931c-1.087-0.96-1.847-1.827-2.279-2.603
										c-0.432-0.776-0.648-1.651-0.648-2.626c0-1.327,0.336-2.354,1.007-3.082c0.672-0.727,1.647-1.091,2.926-1.091
										c1.263,0,2.219,0.364,2.867,1.091c0.648,0.728,0.971,1.771,0.971,3.13v0.696h-2.495v-0.863
										c0-0.576-0.112-0.996-0.335-1.259c-0.224-0.264-0.552-0.396-0.984-0.396c-0.879,0-1.319,0.536-1.319,1.607
										c0,0.608,0.164,1.175,0.492,1.703c0.327,0.527,0.924,1.167,1.787,1.919c1.103,0.96,1.862,1.831,2.279,2.615
										c0.416,0.784,0.623,1.702,0.623,2.758c0,1.375-0.34,2.431-1.019,3.166c-0.68,0.735-1.667,1.103-2.962,1.103
										C484.77,338.628,483.803,338.264,483.147,337.536z"/>
								</g>
							</g>
						</g>
					</g>
				</g>
				<g>
					<g>
						<g>
							<g>
								<g>
									<path style="fill:#FFFFFF;" d="M492.069,337.536c-0.656-0.728-0.983-1.771-0.983-3.13v-0.96h2.495v1.152
										c0,1.087,0.455,1.63,1.367,1.63c0.447,0,0.787-0.131,1.02-0.396c0.231-0.264,0.347-0.691,0.347-1.283
										c0-0.703-0.16-1.323-0.479-1.858c-0.32-0.536-0.912-1.179-1.775-1.931c-1.087-0.96-1.847-1.827-2.279-2.603
										c-0.432-0.776-0.647-1.651-0.647-2.626c0-1.327,0.336-2.354,1.007-3.082c0.672-0.727,1.647-1.091,2.926-1.091
										c1.263,0,2.219,0.364,2.867,1.091c0.647,0.728,0.971,1.771,0.971,3.13v0.696h-2.494v-0.863
										c0-0.576-0.112-0.996-0.336-1.259c-0.224-0.264-0.552-0.396-0.984-0.396c-0.879,0-1.319,0.536-1.319,1.607
										c0,0.608,0.164,1.175,0.492,1.703c0.327,0.527,0.923,1.167,1.787,1.919c1.103,0.96,1.862,1.831,2.279,2.615
										c0.416,0.784,0.623,1.702,0.623,2.758c0,1.375-0.34,2.431-1.019,3.166c-0.68,0.735-1.667,1.103-2.962,1.103
										C493.692,338.628,492.725,338.264,492.069,337.536z"/>
								</g>
							</g>
						</g>
					</g>
				</g>
				<g>
					<g>
						<g>
							<g>
								<g>
									<path style="fill:#FFFFFF;" d="M445.466,350.38h2.542l1.175,12.904h0.048l1.247-12.904h2.878l1.247,12.904h0.048
										l1.175-12.904h2.279l-1.702,16.79h-3.287l-1.199-11.321h-0.048l-1.2,11.321h-3.502L445.466,350.38z"/>
								</g>
							</g>
						</g>
					</g>
				</g>
				<g>
					<g>
						<g>
							<g>
								<g>
									<path style="fill:#FFFFFF;" d="M459.45,350.38h7.195v2.398h-4.558v4.437h3.622v2.398h-3.622v5.157h4.558v2.398h-7.195
										V350.38z"/>
								</g>
							</g>
						</g>
					</g>
				</g>
				<g>
					<g>
						<g>
							<g>
								<g>
									<path style="fill:#FFFFFF;" d="M468.157,350.38h2.638v16.79h-2.638V350.38z"/>
								</g>
							</g>
						</g>
					</g>
				</g>
				<g>
					<g>
						<g>
							<g>
								<g>
									<path style="fill:#FFFFFF;" d="M473.576,366.318c-0.671-0.727-1.007-1.771-1.007-3.13v-8.826
										c0-1.358,0.336-2.402,1.007-3.13c0.672-0.727,1.647-1.091,2.926-1.091c1.279,0,2.255,0.364,2.926,1.091
										c0.672,0.728,1.008,1.772,1.008,3.13v1.439h-2.495v-1.607c0-1.103-0.456-1.655-1.368-1.655
										c-0.911,0-1.367,0.552-1.367,1.655v9.187c0,1.087,0.456,1.631,1.367,1.631c0.912,0,1.368-0.544,1.368-1.631v-3.286h-1.319
										v-2.398h3.814v5.492c0,1.359-0.336,2.403-1.008,3.13c-0.671,0.728-1.647,1.092-2.926,1.092
										C475.223,367.41,474.248,367.046,473.576,366.318z"/>
								</g>
							</g>
						</g>
					</g>
				</g>
				<g>
					<g>
						<g>
							<g>
								<g>
									<path style="fill:#FFFFFF;" d="M482.14,350.38h2.638v6.835h2.831v-6.835h2.638v16.79h-2.638v-7.556h-2.831v7.556h-2.638
										V350.38z"/>
								</g>
							</g>
						</g>
					</g>
				</g>
				<g>
					<g>
						<g>
							<g>
								<g>
									<path style="fill:#FFFFFF;" d="M494.275,352.779h-2.758v-2.398h8.155v2.398h-2.759v14.391h-2.638V352.779z"/>
								</g>
							</g>
						</g>
					</g>
				</g>
			</g>
			<g>
				<g>
					<g>
						<g>
							<g>
								<g>
									<path style="fill:#FFFFFF;" d="M289.246,461.983c-0.672-0.727-1.007-1.77-1.007-3.13v-12.808h2.639v13
										c0,0.576,0.115,0.991,0.348,1.247c0.231,0.256,0.563,0.384,0.995,0.384c0.432,0,0.764-0.128,0.995-0.384
										c0.232-0.256,0.348-0.672,0.348-1.247v-13h2.542v12.808c0,1.359-0.336,2.403-1.007,3.13
										c-0.672,0.728-1.647,1.092-2.926,1.092C290.894,463.075,289.918,462.711,289.246,461.983z"/>
								</g>
							</g>
						</g>
					</g>
				</g>
				<g>
					<g>
						<g>
							<g>
								<g>
									<path style="fill:#FFFFFF;" d="M297.978,446.045h3.309l2.566,10.049h0.048v-10.049h2.35v16.789h-2.711l-3.165-12.256
										h-0.049v12.256h-2.35V446.045z"/>
								</g>
							</g>
						</g>
					</g>
				</g>
				<g>
					<g>
						<g>
							<g>
								<g>
									<path style="fill:#FFFFFF;" d="M308.219,446.045h4.029c1.312,0,2.295,0.352,2.95,1.055
										c0.656,0.704,0.984,1.736,0.984,3.094v8.491c0,1.359-0.328,2.391-0.984,3.094c-0.656,0.703-1.639,1.055-2.95,1.055h-4.029
										V446.045z M312.2,460.436c0.432,0,0.764-0.128,0.996-0.384c0.232-0.255,0.348-0.672,0.348-1.247v-8.73
										c0-0.576-0.116-0.991-0.348-1.247c-0.232-0.256-0.564-0.384-0.996-0.384h-1.344v11.993H312.2z"/>
								</g>
							</g>
						</g>
					</g>
				</g>
				<g>
					<g>
						<g>
							<g>
								<g>
									<path style="fill:#FFFFFF;" d="M317.957,446.045h7.195v2.398h-4.557v4.437h3.622v2.399h-3.622v5.156h4.557v2.398h-7.195
										V446.045z"/>
								</g>
							</g>
						</g>
					</g>
				</g>
				<g>
					<g>
						<g>
							<g>
								<g>
									<path style="fill:#FFFFFF;" d="M326.663,446.045h3.909c1.359,0,2.351,0.316,2.974,0.947
										c0.624,0.632,0.936,1.604,0.936,2.914v1.032c0,1.743-0.576,2.846-1.728,3.31v0.048c0.64,0.191,1.092,0.584,1.355,1.175
										c0.264,0.591,0.396,1.384,0.396,2.374v2.951c0,0.48,0.016,0.867,0.048,1.164c0.032,0.296,0.111,0.587,0.239,0.875h-2.686
										c-0.096-0.272-0.16-0.528-0.191-0.767c-0.033-0.24-0.049-0.672-0.049-1.296v-3.07c0-0.767-0.124-1.303-0.371-1.607
										c-0.248-0.303-0.676-0.455-1.283-0.455h-0.912v7.195h-2.638V446.045z M330.261,453.24c0.528,0,0.923-0.136,1.188-0.407
										c0.263-0.272,0.396-0.728,0.396-1.367v-1.296c0-0.607-0.108-1.047-0.324-1.319c-0.216-0.271-0.556-0.407-1.02-0.407h-1.2
										v4.797H330.261z"/>
								</g>
							</g>
						</g>
					</g>
				</g>
				<g>
					<g>
						<g>
							<g>
								<g>
									<path style="fill:#FFFFFF;" d="M284.282,474.827h2.542l1.175,12.904h0.048l1.247-12.904h2.878l1.247,12.904h0.048
										l1.175-12.904h2.279l-1.702,16.789h-3.287l-1.199-11.321h-0.048l-1.2,11.321h-3.502L284.282,474.827z"/>
								</g>
							</g>
						</g>
					</g>
				</g>
				<g>
					<g>
						<g>
							<g>
								<g>
									<path style="fill:#FFFFFF;" d="M298.265,474.827h7.195v2.398h-4.557v4.437h3.622v2.398h-3.622v5.157h4.557v2.398h-7.195
										V474.827z"/>
								</g>
							</g>
						</g>
					</g>
				</g>
				<g>
					<g>
						<g>
							<g>
								<g>
									<path style="fill:#FFFFFF;" d="M306.972,474.827h2.638v16.789h-2.638V474.827z"/>
								</g>
							</g>
						</g>
					</g>
				</g>
				<g>
					<g>
						<g>
							<g>
								<g>
									<path style="fill:#FFFFFF;" d="M312.391,490.765c-0.671-0.727-1.007-1.771-1.007-3.13v-8.826
										c0-1.359,0.336-2.403,1.007-3.13c0.672-0.727,1.647-1.091,2.926-1.091c1.279,0,2.255,0.364,2.926,1.091
										c0.672,0.728,1.008,1.772,1.008,3.13v1.439h-2.495v-1.607c0-1.103-0.456-1.655-1.368-1.655
										c-0.911,0-1.367,0.552-1.367,1.655v9.187c0,1.087,0.456,1.631,1.367,1.631c0.912,0,1.368-0.544,1.368-1.631v-3.286h-1.319
										v-2.398h3.814v5.492c0,1.359-0.336,2.403-1.008,3.13c-0.671,0.728-1.647,1.092-2.926,1.092
										C314.038,491.857,313.063,491.493,312.391,490.765z"/>
								</g>
							</g>
						</g>
					</g>
				</g>
				<g>
					<g>
						<g>
							<g>
								<g>
									<path style="fill:#FFFFFF;" d="M320.955,474.827h2.638v6.835h2.831v-6.835h2.639v16.789h-2.639v-7.556h-2.831v7.556h-2.638
										V474.827z"/>
								</g>
							</g>
						</g>
					</g>
				</g>
				<g>
					<g>
						<g>
							<g>
								<g>
									<path style="fill:#FFFFFF;" d="M333.091,477.226h-2.758v-2.398h8.156v2.398h-2.759v14.391h-2.638V477.226z"/>
								</g>
							</g>
						</g>
					</g>
				</g>
			</g>
		</g>
		<g>
			<path style="fill:#FFB486;" d="M346.006,188.555l0.312-21.917l-19.832,7.277l-4.27,14.64l-17.08,3.279
				c0,0-4.344,20.387,25.391,17.842c13.72-1.174,28.129-17.491,28.129-17.491L346.006,188.555z"/>
		</g>
		<g>
			<polygon style="fill:#FFB486;" points="287.853,285.71 292.451,264.917 350.547,268.593 343.126,300.19 			"/>
		</g>
		<g>
			<path style="fill:#FFB486;" d="M443.867,299.245c-1.342-1.48-5.534-7.119-5.534-7.119l-68.349-51.508l21.651-15.586
				l56.523,60.498c0,0,10.645,1.22,12.92,1.739c3.044,0.695,10.359,5.293,10.359,5.293c1.332,0.632,1.217,3.222-1.293,3.206
				c0,0-6.486-0.113-9.302-0.103c-5.253,0.019-9.833,1.19-11.126,1.552c-0.185,0.052-0.262,0.266-0.16,0.428l3.421,5.438
				c0.388,0.617,0.065,1.434-0.641,1.618l0,0c-0.833,0.217-1.718,0.077-2.443-0.387
				C449.894,304.315,445.448,300.988,443.867,299.245z"/>
		</g>
		<g>
			<path style="fill:#FFB486;" d="M218.047,273.848l49.368-19.614l10.624-30.158l25.76,7.471c0,0-11.421,25.729-17.404,37.349
				c-3.048,5.92-8.554,7.862-15.18,8.516c-24.107,2.379-50.325,5.142-50.325,5.142L218.047,273.848z"/>
		</g>
		<g>
			<path style="fill:#FFB486;" d="M143.378,385.804c0,0,6.416,10.89,17.762-1.006c0,0,42.658-50.759,47.276-76.939l24.386,8.533
				l30.838-33.839l-53.035-10.037c-10.613-1.276-20.915,4.118-25.913,13.568L143.378,385.804z"/>
		</g>
		<g>
			<path style="fill:#FFB486;" d="M204.531,498.58c0,0,1.828,10.652,17.171,1.271c0,0,50.818-62.054,57.295-90.89
				c1.108-4.934,3.4-9.522,6.561-13.469l16.274-18.31L264.726,362L204.531,498.58z"/>
		</g>
		<g>
			<polygon style="fill:#F0606C;" points="232.764,276.48 284.216,285.684 296.449,311.768 270.593,339.196 221.105,315.712 			"/>
		</g>
		<g>
			<path style="fill:#5E3B3B;" d="M222.262,500.31l-1.12-0.918c0.507-0.619,50.783-62.25,57.148-90.589
				c1.102-4.905,3.42-9.665,6.703-13.764l16.297-18.338l1.082,0.962l-16.273,18.31c-3.122,3.9-5.342,8.456-6.396,13.147
				C273.263,437.793,224.342,497.771,222.262,500.31z"/>
		</g>
		<g>
			<path style="fill:#F0606C;" d="M280.044,292.001l6.772-10.253l59.134,12.65c0,0,1.931,26.386-10.002,48.096
				c-9.408,17.117-34.34,40.979-34.34,40.979l-41.185-20.849l15.358-43.088L280.044,292.001z"/>
		</g>
		<g>
			<g>
				<g>
					<path style="fill:#5E3B3B;" d="M232.387,517.19h-61.279c-0.074-0.726-0.221-2.965,0.246-5.315
						c0.025-0.049,60.172,0.344,60.172,0.344L232.387,517.19z"/>
				</g>
			</g>
			<g>
				<g>
					<path style="fill:#5E3B3B;" d="M231.525,512.22l-60.147-0.394c0.578-6.225,8.39-9.153,15.686-11.011
						c0.492-0.123,0.972-0.234,1.452-0.357c1.046-0.246,2.067-0.467,3.039-0.689c0.504-0.111,0.997-0.221,1.464-0.32
						c2.522-0.566,4.613-1.046,5.819-1.612c1.083-0.517,2.399-1.267,3.543-1.956c0.394-0.234,0.75-0.467,1.083-0.677
						c1.083-0.677,1.858-1.193,1.858-1.193c3.937,1.292,9.867,4.995,22.883-0.898l0.394,2.264l0.221,1.279L231.525,512.22z"/>
				</g>
			</g>
			<g>
				<g>
					<g>
						<g>
							<path style="fill:#FFFFFF;" d="M188.516,500.459c-0.91,2.104-1.009,4.367-1.009,4.392l-1.23-0.049
								c0.012-0.123,0.086-1.969,0.787-3.986C187.556,500.693,188.036,500.582,188.516,500.459z"/>
						</g>
					</g>
				</g>
				<g>
					<g>
						<g>
							<path style="fill:#FFFFFF;" d="M193.018,499.45c-1.009,2.178-1.107,4.589-1.107,4.613l-1.23-0.037
								c0-0.135,0.086-2.141,0.874-4.257C192.059,499.659,192.551,499.548,193.018,499.45z"/>
						</g>
					</g>
				</g>
			</g>
			<g>
				<g>
					<g>
						<path style="fill:#FFFFFF;" d="M228.819,496.657c-5.364,2.67-9.953,3.592-13.754,3.592c-7.025,0-11.318-3.174-12.684-4.367
							c0.394-0.234,0.75-0.467,1.083-0.677c2.288,1.956,10.666,7.541,25.134,0.172L228.819,496.657z"/>
					</g>
				</g>
			</g>
			<g>
				<g>
					<rect x="171.378" y="511.155" style="fill:#FFFFFF;" width="60.147" height="1.341"/>
				</g>
			</g>
		</g>
		<g>
			<g>
				<g>
					<path style="fill:#5E3B3B;" d="M168.631,408.525L107.36,407.5c-0.062-0.727-0.172-2.968,0.335-5.31
						c0.025-0.049,60.158,1.351,60.158,1.351L168.631,408.525z"/>
				</g>
			</g>
			<g>
				<g>
					<path style="fill:#5E3B3B;" d="M167.853,403.541l-60.132-1.4c0.682-6.215,8.542-9.012,15.868-10.747
						c0.494-0.115,0.976-0.218,1.457-0.333c1.05-0.229,2.074-0.433,3.05-0.638c0.506-0.102,1-0.205,1.469-0.295
						c2.531-0.524,4.63-0.968,5.845-1.514c1.091-0.499,2.42-1.227,3.575-1.897c0.397-0.227,0.758-0.455,1.094-0.658
						c1.094-0.659,1.877-1.162,1.877-1.162c3.915,1.357,9.782,5.159,22.895-0.515l0.356,2.27l0.2,1.283L167.853,403.541z"/>
				</g>
			</g>
			<g>
				<g>
					<g>
						<g>
							<path style="fill:#FFFFFF;" d="M125.046,391.062c-0.946,2.088-1.082,4.35-1.082,4.375l-1.229-0.07
								c0.014-0.123,0.119-1.967,0.854-3.972C124.082,391.28,124.564,391.177,125.046,391.062z"/>
						</g>
					</g>
				</g>
				<g>
					<g>
						<g>
							<path style="fill:#FFFFFF;" d="M129.565,390.129c-1.045,2.16-1.184,4.57-1.184,4.594l-1.229-0.057
								c0.002-0.135,0.122-2.139,0.945-4.242C128.602,390.322,129.096,390.219,129.565,390.129z"/>
						</g>
					</g>
				</g>
			</g>
			<g>
				<g>
					<g>
						<path style="fill:#FFFFFF;" d="M165.407,387.935c-5.408,2.58-10.012,3.425-13.812,3.362
							c-7.024-0.118-11.264-3.363-12.609-4.579c0.397-0.227,0.758-0.455,1.094-0.658c2.255,1.994,10.539,7.719,25.128,0.593
							L165.407,387.935z"/>
					</g>
				</g>
			</g>
			<g>
				<g>
					
						<rect x="136.866" y="372.82" transform="matrix(0.0167 -0.9999 0.9999 0.0167 -267.348 533.4213)" style="fill:#FFFFFF;" width="1.341" height="59.64"/>
				</g>
			</g>
		</g>
		<g>
			<path style="fill:#75A1E0;" d="M268.101,244.127l24.911,1.692l4.117-52.155c0,0-9.413,3.895-13.188,10.946
				C278.528,214.723,268.101,244.127,268.101,244.127z"/>
		</g>
		<g>
			<g>
				
					<rect x="278.616" y="229.214" transform="matrix(0.0391 -0.9992 0.9992 0.0391 29.6885 509.0447)" style="fill:#587DCB;" width="1.795" height="19.745"/>
			</g>
		</g>
		<g>
			<path style="fill:#75A1E0;" d="M363.845,194.817l-1.733,42.597l-0.122,3.061l-4.814,16.52l-4.236,14.533l-64.275-4.419
				l-1.632-21.536l-0.882-11.665l1.946-7.135l9.03-33.11l12.243-2.645c0,0,2.706,10.783,14.3,11.118
				c16.084,0.456,26.908-12.516,26.908-12.516L363.845,194.817z"/>
		</g>
		<g>
			<path style="fill:#FFFCFF;" d="M360.576,245.327l-3.4,11.667c-9.557-3.76-19.51-6.517-29.634-8.209
				c-4.307-0.71-8.655-1.237-12.993-1.764c-2.929-0.355-5.868-0.709-8.797-1.064c-6.223-0.75-12.587-1.49-18.719-0.385
				l-0.217-10.315l1.037-3.597c0,0,12.325-5.365,27.307-2.709c8.835,1.567,18.395,4.456,27.677,8.151
				C348.968,239.542,354.978,242.334,360.576,245.327z"/>
		</g>
		<g>
			<path style="fill:#75A1E0;" d="M348,238.7l23.14,12.403l28.982-23.999c0,0-15.147-19.648-28.982-29.903
				c-4.587-3.4-20.889-7.582-20.889-7.582L348,238.7z"/>
		</g>
		<g>
			<path style="fill:#FFB486;" d="M350.973,161.45c-2.674,12.741-13.19,22.118-25.034,21.435
				c-12.815-0.739-14.649-12.8-11.177-29.347c2.674-12.741,12.302-19.885,22.652-17.713
				C347.765,137.997,353.646,148.709,350.973,161.45z"/>
		</g>
		<g>
			<path style="fill:#5E3B3B;" d="M346.474,172.072c0,0,8.951-2.272,12.353-15.852c3.403-13.58-6.56-26.688-15.028-27.637
				c-8.468-0.949-16.895,2.495-16.895,2.495s-6.641,23.054,19.736,29.174L346.474,172.072z"/>
		</g>
		<g>
			<path style="fill:#5E3B3B;" d="M369.297,140.357c-1.159,5.523-5.863,9.21-10.507,8.236c-4.644-0.975-7.469-6.242-6.31-11.765
				c1.159-5.523,5.863-9.21,10.507-8.236C367.631,129.567,370.456,134.835,369.297,140.357z"/>
		</g>
		<g>
			<path style="fill:#5E3B3B;" d="M362.754,133.545c1.442,4.593-0.519,9.299-4.381,10.511c-3.862,1.213-8.161-1.527-9.603-6.12
				c-1.442-4.593,0.519-9.299,4.381-10.512C357.012,126.213,361.312,128.953,362.754,133.545z"/>
		</g>
		<g>
			<path style="fill:#5E3B3B;" d="M256.872,396.153c-4.637-0.705-6.527-4.372-6.605-4.527l1.293-0.652
				c0.066,0.129,1.653,3.158,5.53,3.748L256.872,396.153z"/>
		</g>
		<g>
			<g>
				
					<rect x="248.574" y="290.537" transform="matrix(0.3837 -0.9234 0.9234 0.3837 -139.2735 425.9238)" style="fill:#E14E4E;" width="1.796" height="53.541"/>
			</g>
		</g>
		<g>
			<g>
				<path style="fill:#E14E4E;" d="M292.822,379.317l-1.299-1.24c0.312-0.326,31.244-32.953,39.465-58.812l1.711,0.543
					C324.352,346.066,293.137,378.988,292.822,379.317z"/>
			</g>
		</g>
		<g>
			<polygon style="fill:#5E3B3B;" points="284.558,286.481 210.477,273.229 210.731,271.804 283.875,284.887 286.211,281.349 
				287.42,282.148 			"/>
		</g>
		<g>
			<g>
				<path style="fill:#E14E4E;" d="M336.156,299.807c-29.234-1.483-41.572-8.062-42.083-8.341l0.86-1.576
					c0.122,0.067,12.557,6.665,41.314,8.124L336.156,299.807z"/>
			</g>
		</g>
		<g>
			<path style="fill:#5E3B3B;" d="M327.236,183.548c-4.006,0-6.709-1.117-6.762-1.139l0.568-1.332
				c0.395,0.166,9.789,4.006,19.488-3.914l0.917,1.122C336.308,182.481,331.15,183.548,327.236,183.548z"/>
		</g>
		<g>
			<path style="fill:#5E3B3B;" d="M287.943,267.166l-1.768-23.348c-0.496-6.555,0.471-13.27,2.798-19.419l4.853-12.823l1.355,0.513
				l-4.853,12.823c-2.252,5.951-3.189,12.451-2.708,18.797l1.768,23.348L287.943,267.166z"/>
		</g>
		<g>
			<g>
				
					<rect x="361.063" y="234.36" transform="matrix(0.7574 -0.6529 0.6529 0.7574 -61.1741 305.8553)" style="fill:#587DCB;" width="39.953" height="1.795"/>
			</g>
		</g>
		<g>
			
				<rect x="358.846" y="231.775" transform="matrix(0.4724 -0.8814 0.8814 0.4724 -26.1432 446.13)" style="fill:#5E3B3B;" width="1.449" height="26.254"/>
		</g>
		<g>
			<path style="fill:#5E3B3B;" d="M161.698,387.055l-1.116-0.922c0.425-0.515,42.589-51.809,47.121-77.501l0.142-0.804l14.317,4.344
				l-0.421,1.386l-12.763-3.874C203.702,335.961,163.427,384.961,161.698,387.055z"/>
		</g>
		<g>
			<path style="fill:#5E3B3B;" d="M302.057,384.041l-0.899-1.135c0.504-0.399,50.319-40.413,44.074-88.414l1.436-0.187
				C353.02,343.125,302.567,383.639,302.057,384.041z"/>
		</g>
		<g>
			
				<rect x="245.23" y="340.356" transform="matrix(0.3358 -0.9419 0.9419 0.3358 -143.2075 479.0644)" style="fill:#5E3B3B;" width="45.743" height="1.449"/>
		</g>
		<g>
			<path style="fill:#5E3B3B;" d="M347.077,131.772l-1.359-0.502c0.068-0.184,1.705-4.527,5.44-5.535
				c2.342-0.633,4.919,0.193,7.658,2.456l-0.922,1.117c-2.353-1.944-4.486-2.675-6.352-2.176
				C348.533,127.94,347.092,131.734,347.077,131.772z"/>
		</g>
		<g>
			<path style="fill:#5E3B3B;" d="M343.978,160.877c-7.251-0.336-12.552-2.721-15.757-7.087c-5.518-7.519-2.812-18.089-2.694-18.535
				l1.4,0.37c-0.027,0.103-2.644,10.359,2.466,17.314c2.933,3.993,7.863,6.176,14.651,6.492L343.978,160.877z"/>
		</g>
		<g>
			<path style="fill:#FFB486;" d="M349.479,163.343c-0.59,2.814-3.1,4.669-5.605,4.143c-2.505-0.526-4.057-3.233-3.467-6.047
				c0.59-2.814,3.1-4.669,5.605-4.143C348.518,157.822,350.07,160.529,349.479,163.343z"/>
		</g>
		<g>
			<g>
				<g>
					<path style="fill:#FFFCFF;" d="M621.326,402.565l9.312,7.933l3.915,3.337l14.557,4.602l8.031-25.769l6.698-21.483
						l-32.098-33.026L616.676,386.5C614.87,392.296,616.701,398.621,621.326,402.565z"/>
				</g>
				<g>
					<g>
						
							<rect x="632.507" y="379.286" transform="matrix(0.537 -0.8436 0.8436 0.537 -44.0914 719.5273)" style="fill:#503D39;" width="1.932" height="41.293"/>
					</g>
					<g>
						
							<rect x="629.526" y="366.133" transform="matrix(0.5367 -0.8438 0.8438 0.5367 -25.5903 706.4002)" style="fill:#503D39;" width="1.932" height="20.742"/>
					</g>
					<g>
						<g>
							
								<rect x="643.886" y="343.464" transform="matrix(0.537 -0.8436 0.8436 0.537 -8.5938 712.563)" style="fill:#503D39;" width="1.932" height="41.294"/>
						</g>
					</g>
				</g>
			</g>
			<g>
				<g>
					<path style="fill:#9EBEE3;" d="M618.193,398.872c0.821,1.369,1.874,2.621,3.133,3.694l9.312,7.933l3.915,3.337l15.427,13.169
						c7.435,6.354,18.198,6.973,26.319,1.515l65.164-43.786l16.958-11.391l-8.738-8.801l-3.203-3.232
						c-9.078-9.156-22.946-11.228-34.19-5.488l-1.966,1.323l-53.271,35.793l-11.902,7.999c-0.735,0.493-1.499,0.939-2.273,1.329
						c-7.777,3.965-17.281,2.929-24.046-2.844L618.193,398.872z"/>
				</g>
			</g>
			<g>
				<g>
					<path style="fill:#FFFCFF;" d="M710.05,461.944c-3.834,9.44-1.247,20.269,6.449,26.944l9.272,8.034l10.156,8.806l8.61-21.181
						l29.673-72.927c3.92-9.639,1.705-20.679-5.629-28.059l-10.159-10.218l-8.738-8.801l-3.203-3.232
						c-3.753-3.793-8.34-6.372-13.219-7.68l2.458,2.469c7.334,7.38,9.549,18.42,5.629,28.059L710.05,461.944z"/>
				</g>
			</g>
			<g>
				<g>
					<path style="fill:#9EBEE3;" d="M711.878,483.464c1.237,2,2.78,3.83,4.621,5.424l9.272,8.034l10.156,8.806l5.302,4.597
						c9.474,8.207,23.085,9.576,33.998,3.413l77.686-43.881l-28.781-29.611l-79.935,45.145l-0.099,0.055
						c-1.709,0.968-3.494,1.754-5.31,2.344C729.719,490.784,719.662,489.234,711.878,483.464z"/>
				</g>
			</g>
			<g>
				<g>
					<g>
						
							<rect x="830.51" y="437.259" transform="matrix(0.7171 -0.6969 0.6969 0.7171 -76.8883 706.1695)" style="fill:#503D39;" width="1.931" height="21.086"/>
					</g>
				</g>
				<g>
					
						<rect x="821.172" y="443.609" transform="matrix(0.7171 -0.697 0.697 0.7171 -90.9843 704.3658)" style="fill:#503D39;" width="1.931" height="41.294"/>
				</g>
				<g>
					
						<rect x="797.593" y="455.736" transform="matrix(0.7171 -0.697 0.697 0.7171 -98.9123 688.4427)" style="fill:#503D39;" width="1.931" height="20.648"/>
				</g>
				<g>
					
						<rect x="788.403" y="462.02" transform="matrix(0.7171 -0.697 0.697 0.7171 -113.0836 686.7489)" style="fill:#503D39;" width="1.931" height="41.293"/>
				</g>
				<g>
					
						<rect x="764.857" y="474.13" transform="matrix(0.7173 -0.6968 0.6968 0.7173 -121.0872 670.5558)" style="fill:#503D39;" width="1.931" height="20.742"/>
				</g>
				<g>
					<g>
						
							<rect x="755.634" y="480.43" transform="matrix(0.7171 -0.697 0.697 0.7171 -135.189 669.1038)" style="fill:#503D39;" width="1.931" height="41.293"/>
					</g>
				</g>
			</g>
			<g>
				<g>
					<g>
						
							<rect x="725.025" y="349.72" transform="matrix(0.6768 -0.7362 0.7362 0.6768 -30.5772 650.8779)" style="fill:#503D39;" width="1.931" height="21.086"/>
					</g>
				</g>
				<g>
					
						<rect x="716.627" y="356.569" transform="matrix(0.6767 -0.7362 0.7362 0.6767 -45.7494 650.2361)" style="fill:#503D39;" width="1.931" height="41.294"/>
				</g>
				<g>
					
						<rect x="693.186" y="370.018" transform="matrix(0.6768 -0.7362 0.7362 0.6768 -55.6379 633.9623)" style="fill:#503D39;" width="1.931" height="20.649"/>
				</g>
				<g>
					
						<rect x="684.945" y="376.793" transform="matrix(0.6768 -0.7362 0.7362 0.6768 -70.8794 633.4487)" style="fill:#503D39;" width="1.931" height="41.293"/>
				</g>
				<g>
					
						<rect x="661.539" y="390.223" transform="matrix(0.677 -0.736 0.736 0.677 -80.8312 617.0207)" style="fill:#503D39;" width="1.931" height="20.742"/>
				</g>
				<g>
					<g>
						
							<rect x="653.263" y="397.016" transform="matrix(0.6767 -0.7362 0.7362 0.6767 -96.0084 616.6636)" style="fill:#503D39;" width="1.931" height="41.293"/>
					</g>
				</g>
			</g>
			<g>
				<g>
					<g>
						
							<rect x="717.437" y="462.445" transform="matrix(0.5804 -0.8143 0.8143 0.5804 -83.7357 783.4615)" style="fill:#503D39;" width="1.931" height="21.086"/>
					</g>
				</g>
				<g>
					
						<rect x="732.288" y="440.621" transform="matrix(0.5805 -0.8143 0.8143 0.5805 -67.9788 790.593)" style="fill:#503D39;" width="1.931" height="41.293"/>
				</g>
				<g>
					
						<rect x="730.504" y="427.362" transform="matrix(0.5805 -0.8143 0.8143 0.5805 -49.5226 779.2532)" style="fill:#503D39;" width="1.931" height="20.648"/>
				</g>
				<g>
					
						<rect x="745.528" y="405.443" transform="matrix(0.5805 -0.8143 0.8143 0.5805 -33.7786 786.6179)" style="fill:#503D39;" width="1.931" height="41.293"/>
				</g>
				<g>
					
						<rect x="743.779" y="392.167" transform="matrix(0.5802 -0.8145 0.8145 0.5802 -15.2128 775.5602)" style="fill:#503D39;" width="1.931" height="20.741"/>
				</g>
				<g>
					<g>
						
							<rect x="758.768" y="370.266" transform="matrix(0.5805 -0.8143 0.8143 0.5805 0.4189 782.6392)" style="fill:#503D39;" width="1.931" height="41.293"/>
					</g>
				</g>
			</g>
			<g>
				<g>
					<path style="fill:#503D39;" d="M664.148,433.176c-5.299,0-10.577-1.831-14.796-5.437l1.254-1.467
						c7.079,6.046,17.422,6.644,25.154,1.447l43.023-28.91l1.077,1.603l-43.023,28.91
						C672.997,431.902,668.565,433.176,664.148,433.176z"/>
				</g>
			</g>
		</g>
		<g>
			<g>
				<g>
					<g>
						<g>
							<rect x="706.523" y="515.427" style="fill:#5E3B3B;" width="132.623" height="2.142"/>
						</g>
					</g>
				</g>
			</g>
		</g>
		<g>
			
				<rect x="631.305" y="403.479" transform="matrix(0.6433 -0.7657 0.7657 0.6433 -90.3348 631.2854)" style="fill:#503D39;" width="1.931" height="18.205"/>
		</g>
		<g>
			
				<rect x="763.83" y="492.018" transform="matrix(0.8738 -0.4862 0.4862 0.8738 -137.333 456.7105)" style="fill:#503D39;" width="95.086" height="1.932"/>
		</g>
		<g>
			<g>
				<path style="fill:#F0606C;" d="M723.914,286.224l-31.168,24.846l-30.477-25.628c-22.679-23.501,8.118-53.755,31.212-30.662
					C717.063,232.021,747.443,263.109,723.914,286.224z"/>
			</g>
			<g>
				<g>
					<g>
						<path style="fill:#5E3B3B;" d="M733.126,268.37l-1.448-0.023c0.129-8.149-4.87-15.832-12.442-19.118
							c-8.312-3.608-17.517-1.396-25.253,6.071l-0.512,0.494l-0.503-0.503c-11.618-11.616-24.653-9.203-31.846-2.044l-1.022-1.027
							c7.583-7.544,21.196-10.198,33.39,1.553c7.967-7.391,17.762-9.589,26.323-5.873
							C727.914,251.417,733.265,259.643,733.126,268.37z"/>
					</g>
					<g>
						
							<rect x="699.634" y="293.993" transform="matrix(0.782 -0.6233 0.6233 0.782 -28.2043 508.7937)" style="fill:#5E3B3B;" width="27.251" height="1.449"/>
					</g>
				</g>
			</g>
			<g>
				<polygon style="fill:#FFFFFF;" points="684.504,304.584 676.878,279.527 653.344,279.527 653.344,277.381 678.468,277.381 
					684.261,296.418 692.853,260.688 698.308,277.381 734.96,277.381 734.96,279.527 696.751,279.527 693.168,268.558 				"/>
			</g>
		</g>
	</g>
</g>
</svg>
